<svg width="36" height="18" viewBox="0 0 36 18" fill="none" xmlns="http://www.w3.org/2000/svg">
<path d="M8.99988 17C8.7611 17.0001 8.53201 16.9056 8.36268 16.7372L1.16268 9.53725C0.993954 9.36848 0.89917 9.1396 0.89917 8.90095C0.89917 8.6623 0.993954 8.43343 1.16268 8.26465L8.36268 1.06465C8.53242 0.90071 8.75976 0.809995 8.99574 0.812046C9.23172 0.814096 9.45745 0.908748 9.62432 1.07562C9.79118 1.24248 9.88583 1.46821 9.88789 1.70419C9.88994 1.94017 9.79922 2.16751 9.63528 2.33725L3.07248 8.90005L9.63528 15.4628C9.76085 15.5888 9.84629 15.7492 9.88079 15.9237C9.9153 16.0981 9.89732 16.2789 9.82915 16.4432C9.76097 16.6075 9.64564 16.7479 9.49773 16.8467C9.34981 16.9455 9.17595 16.9982 8.99808 16.9982L8.99988 17Z" fill="#F61067"/>
<path d="M26.9999 17C26.822 16.9999 26.6482 16.9472 26.5003 16.8484C26.3523 16.7496 26.237 16.6092 26.1688 16.4449C26.1007 16.2807 26.0827 16.0999 26.1172 15.9254C26.1517 15.7509 26.2371 15.5905 26.3627 15.4646L32.9255 8.90176L26.3627 2.33896C26.1988 2.16922 26.108 1.94188 26.1101 1.7059C26.1122 1.46992 26.2068 1.24419 26.3737 1.07733C26.5405 0.910458 26.7663 0.815805 27.0022 0.813755C27.2382 0.811704 27.4656 0.902419 27.6353 1.06636L34.8353 8.26636C35.004 8.43514 35.0988 8.66401 35.0988 8.90266C35.0988 9.14131 35.004 9.37019 34.8353 9.53896L27.6353 16.739C27.5517 16.8226 27.4523 16.889 27.343 16.9341C27.2336 16.9792 27.1164 17.0022 26.9981 17.0018L26.9999 17Z" fill="#F61067"/>
<path d="M13.4999 17.0001C13.3392 17.0001 13.1815 16.9571 13.0431 16.8755C12.9046 16.794 12.7906 16.6769 12.7127 16.5363C12.6348 16.3958 12.5959 16.237 12.6002 16.0764C12.6044 15.9158 12.6515 15.7593 12.7367 15.6231L21.7367 1.22305C21.8632 1.02064 22.0649 0.876773 22.2975 0.8231C22.5301 0.769427 22.7744 0.810346 22.9769 0.936854C23.1793 1.06336 23.3231 1.2651 23.3768 1.49768C23.4305 1.73026 23.3896 1.97464 23.2631 2.17705L14.2631 16.5771C14.1822 16.7065 14.0697 16.8132 13.9361 16.8872C13.8026 16.9612 13.6525 17.0001 13.4999 17.0001V17.0001Z" fill="#F61067"/>
</svg>
